<?xml version="1.0" standalone="no"?>
<!DOCTYPE svg PUBLIC "-//W3C//DTD SVG 20010904//EN"
 "http://www.w3.org/TR/2001/REC-SVG-20010904/DTD/svg10.dtd">
<svg version="1.0" xmlns="http://www.w3.org/2000/svg"
 width="512.000000pt" height="512.000000pt" viewBox="0 0 512.000000 512.000000"
 preserveAspectRatio="xMidYMid meet">

<g transform="translate(0.000000,512.000000) scale(0.100000,-0.100000)"
fill="#000000" stroke="none">
<path d="M2355 5109 c-345 -36 -691 -174 -978 -391 -105 -79 -286 -260 -365
-365 -179 -236 -303 -510 -361 -793 -40 -197 -42 -285 -39 -1815 l3 -1470 27
-57 c37 -79 98 -142 177 -181 59 -29 74 -32 156 -32 76 0 99 4 147 27 79 37
142 98 181 177 l32 66 5 687 5 688 35 -28 c101 -84 332 -213 478 -269 686
-260 1438 -125 1989 357 582 508 807 1336 563 2070 -290 872 -1144 1424 -2055
1329z m406 -735 c569 -96 991 -573 1015 -1149 15 -350 -108 -668 -356 -915
-224 -224 -493 -342 -815 -357 -513 -23 -991 290 -1180 772 -62 156 -79 251
-79 435 -1 224 32 378 120 552 89 177 251 362 407 467 263 176 582 247 888
195z"/>
</g>
</svg>
